<svg width="1024" height="1024" viewBox="0 0 1024 1024" fill="none" xmlns="http://www.w3.org/2000/svg">
<path d="M194 512.198L432.649 432.649L512.198 194L591.748 432.649L830.396 512.198L591.748 591.748L512.198 830.396L432.649 591.748L194 512.198Z" stroke="#74C7EC" stroke-width="150" stroke-linejoin="round"/>
<path d="M719.111 251.223C734.511 243.523 753.11 246.541 765.284 258.716C777.459 270.89 780.477 289.489 772.777 304.889L669.222 512L772.777 719.111C780.477 734.511 777.459 753.11 765.284 765.284C753.11 777.459 734.511 780.477 719.111 772.777L512 669.222L304.889 772.777C289.489 780.477 270.89 777.459 258.716 765.284C246.541 753.11 243.523 734.511 251.223 719.111L354.778 512L251.223 304.889C243.523 289.489 246.541 270.89 258.716 258.716C270.89 246.541 289.489 243.523 304.889 251.223L512 354.778L719.111 251.223Z" stroke="#74C7EC" stroke-width="80" stroke-linejoin="round"/>
</svg>
